<svg xmlns="http://www.w3.org/2000/svg" xmlns:xlink="http://www.w3.org/1999/xlink" viewBox="0 0 48 48">
<circle fill="#0085FF" cx="24" cy="24" r="24"/>
<path fill="#FFFFFF" d="M15.51,14.101c3.436,2.59,7.133,7.837,8.49,10.653v7.441c0-0.159-0.06,0.021-0.192,0.406
	c-0.708,2.086-3.474,10.233-9.8,3.721c-3.331-3.429-1.788-6.858,4.273-7.893c-3.467,0.592-7.366-0.388-8.437-4.222
	c-0.309-1.104-0.833-7.902-0.833-8.82C9.012,10.789,13.03,12.234,15.51,14.101z M32.49,14.101c-3.437,2.59-7.133,7.837-8.49,10.653
	v7.441c0-0.159,0.061,0.021,0.192,0.406c0.708,2.086,3.475,10.233,9.8,3.721c3.332-3.429,1.788-6.858-4.274-7.893
	c3.469,0.592,7.368-0.388,8.438-4.222c0.308-1.104,0.833-7.902,0.833-8.82C38.989,10.789,34.972,12.234,32.49,14.101z"/>
</svg>
