<?xml version="1.0" encoding="utf-8"?>
<!DOCTYPE svg PUBLIC "-//W3C//DTD SVG 1.1//EN" "http://www.w3.org/Graphics/SVG/1.1/DTD/svg11.dtd" [
	<!ENTITY ns_svg "http://www.w3.org/2000/svg">
	<!ENTITY ns_xlink "http://www.w3.org/1999/xlink">
]>
<svg  version="1.1" id="txori" xmlns="&ns_svg;" xmlns:xlink="&ns_xlink;" width="640" height="470" viewBox="0 0 640 470"
	 overflow="visible" enable-background="new 0 0 640 470" xml:space="preserve">
<path fill="#990000" d="M419.977,124.099C310.07,124.099,269.682,326.702,30,326.702C277.626,302.865,304.772,14.189,474.932,14.189
	c63.563,0,84.749,64.224,135.068,75.479c-18.208,18.208-22.512,26.485-22.512,66.21c0,97.991-94.683,232.397-369.452,121.827
	c205.913,77.466,270.8-27.809,270.8-80.115C488.836,145.948,453.082,124.099,419.977,124.099z"/>
<path fill="#990000" d="M194.201,366.427c-11.225,0-7.916,0-13.242,0c-13.242,0-13.242-19.862,0-19.862c2.476,0,0.518,0,13.242,0
	c3.973,0,5.297-1.323,5.297-5.297c0-16.797,0-19.862,0-19.862c0-13.241,19.863-13.241,19.863,0c0,2.403,0,4.663,0,19.862
	c0,3.974,1.325,5.297,5.297,5.297c12.82,0,13.242,0.002,13.242,0.002c13.242,0,13.242,19.865,0,19.865
	c-3.516,0-2.934-0.005-13.242-0.005c-3.972,0-5.297,1.325-5.297,5.298c0,34.496,0,68.702,0,74.154c0,13.242-19.863,13.242-19.863,0
	c0-3.257,0-38.967,0-74.154C199.498,367.752,198.173,366.427,194.201,366.427z"/>
<path fill="#990000" d="M314.287,418.174c19.896,19.896,30.518,30.52,33.24,33.239c9.361,9.364,23.407-4.682,14.046-14.043
	c0,0-12.372-12.372-33.239-33.242c-2.811-2.81-2.811-4.681,0-7.487c19.458-19.459,30.572-30.574,33.241-33.242
	c9.36-9.363-4.686-23.408-14.045-14.045c0,0-12.611,12.609-33.241,33.239c-2.813,2.81-4.684,2.81-7.491,0
	c-19.988-19.987-31.499-31.499-33.24-33.239c-9.364-9.362-23.409,4.682-14.045,14.043c2.867,2.865,13.954,13.955,33.241,33.242
	c2.809,2.811,2.809,4.68,0,7.489c-19.96,19.96-31.501,31.502-33.241,33.242c-9.363,9.36,4.681,23.407,14.045,14.043
	c2.867-2.867,13.927-13.927,33.241-33.239C309.604,415.364,311.479,415.364,314.287,418.174z"/>
<path fill="#990000" d="M425.938,345.9c-30.353,0-54.954,24.604-54.954,54.955s24.604,54.953,54.954,54.953
	s54.953-24.604,54.953-54.953S456.286,345.9,425.938,345.9z M425.938,434.954c-18.834,0-34.1-15.267-34.1-34.099
	s15.266-34.1,34.1-34.1c18.831,0,34.099,15.268,34.099,34.1S444.769,434.954,425.938,434.954z"/>
<path fill="#990000" d="M514.657,358.361c0.736-0.61,0-1.699,0-2.196c0-13.574-19.863-13.574-19.863,0c0,0,0,87.14,0,89.714
	c0,13.242,19.863,13.242,19.863,0c0-5.527,0-25.342,0-45.021c0-18.832,15.349-34.1,34.181-34.1c5.763,0,10.513-4.666,10.513-10.427
	c0-5.765-4.253-10.431-10.016-10.431C536.107,345.9,524.052,350.576,514.657,358.361z"/>
<path fill="#990000" d="M571.599,356.165c0,0,0,84.417,0,89.714c0,13.242,19.862,13.242,19.862,0c0-11.256,0-81.77,0-89.714
	C591.461,342.591,571.599,342.591,571.599,356.165z"/>
<circle fill="#990000" cx="581.53" cy="323.39" r="9.931"/>
</svg>
