<svg xmlns="http://www.w3.org/2000/svg" xmlns:xlink="http://www.w3.org/1999/xlink" width="100" height="100" image-rendering="optimizeQuality" overflow="visible" shape-rendering="geometricPrecision" text-rendering="geometricPrecision"><path fill="#FFF" d="M22.5 30h55v40h-55z"/><path fill="red" d="M50 0c27.614 0 50 22.386 50 50s-22.386 50-50 50S0 77.614 0 50 22.386 0 50 0zm25.259 39.688s-.504-3.555-2.054-5.115c-1.963-2.053-4.161-2.066-5.166-2.185-7.211-.525-18.042-.525-18.042-.525h-.019s-10.826 0-18.041.525c-1.009.122-3.204.131-5.167 2.185-1.55 1.561-2.043 5.115-2.043 5.115s-.514 4.172-.514 8.352v3.909c0 4.171.513 8.351.513 8.351s.504 3.555 2.044 5.118c1.962 2.054 4.541 1.986 5.693 2.205 4.128.395 17.537.514 17.537.514s10.84-.02 18.05-.535c1.01-.119 3.204-.132 5.167-2.186 1.551-1.561 2.054-5.119 2.054-5.119s.513-4.171.513-8.352v-3.908c-.011-4.171-.523-8.351-.523-8.351l-.002.002zM44.655 56.691V42.197l13.932 7.271-13.932 7.223z"/></svg>